<svg width="20" height="20" fill="none" xmlns="http://www.w3.org/2000/svg"><path d="M18.155 16.994l-3.63-3.62h0a.209.209 0 00-.295 0l3.925 3.62zm0 0a.785.785 0 00-.135.107h0l-.854.854h0a.795.795 0 00-.108.136l-3.613-3.626h0a.209.209 0 010-.297l.18-.178h-.011l.615-.616h0m3.926 3.62l-3.926-3.62m0 0h0zm5.164 4.296a.86.86 0 00-.232-.588l-.001-.002-.017-.017-4.15-4.15h0a.877.877 0 00-1.222 0l-.002.001-.209.21-.936-.948a6.82 6.82 0 10-9.924.61h0a6.821 6.821 0 009.487-.13l.922.921-.125.125-.01.01a.86.86 0 000 1.224s0 0 0 0l4.16 4.136s0 0 0 0a.858.858 0 001.224 0s0 0 0 0l.785-.796s0 0 0 0a.86.86 0 00.25-.606zm-1.818.906a.19.19 0 01.023-.187l.009-.008.853-.854h0l-.071-.071.072.07a.18.18 0 01.202-.04l.028.028a.209.209 0 010 .296l-.792.792a.217.217 0 01-.298 0l-.026-.026zM7.374 14.01h0a6.151 6.151 0 01-4.347-1.807l-.079.078.079-.078a6.153 6.153 0 01.008-8.7h0a6.152 6.152 0 018.698.005h0a6.152 6.152 0 011.801 4.349 6.162 6.162 0 01-6.16 6.153z" fill="#000" stroke="#000" stroke-width=".222"/></svg>