<svg width="20" height="20" viewBox="0 0 20 20" fill="none" xmlns="http://www.w3.org/2000/svg">
<path d="M18.1551 16.9936L14.5249 13.3737L14.5248 13.3737C14.4433 13.2922 14.3114 13.2922 14.2298 13.3735L18.1551 16.9936ZM18.1551 16.9936C18.1063 17.0242 18.0609 17.0602 18.0198 17.1009L18.0193 17.1014L17.1659 17.9548L17.1654 17.9552C17.1247 17.9964 17.0888 18.0418 17.0581 18.0906L13.445 14.4648L13.4444 14.4643C13.405 14.4252 13.3827 14.3719 13.3827 14.3161C13.3827 14.2604 13.405 14.207 13.4444 14.168L13.6243 13.9901L13.6137 13.9896L14.2294 13.3739L14.2295 13.3738M18.1551 16.9936L14.2295 13.3738M14.2295 13.3738L14.2296 13.3737L14.2295 13.3738ZM19.3932 17.6699C19.3932 17.4512 19.3097 17.2408 19.1606 17.0818L19.16 17.0803L19.1427 17.063L14.9934 12.9137L14.9934 12.9137L14.9922 12.9125C14.8286 12.7538 14.6096 12.665 14.3815 12.665C14.1535 12.665 13.9345 12.7538 13.7709 12.9125L13.7694 12.914L13.5604 13.1244L12.6245 12.1757C13.7442 10.8265 14.3023 9.0964 14.1798 7.34474C14.0549 5.55906 13.233 3.89397 11.8914 2.70888C10.5499 1.52372 8.79614 0.913505 7.00881 1.00991C5.22136 1.1063 3.54333 1.90153 2.33705 3.22405C1.13067 4.54656 0.492533 6.29035 0.560462 8.07914C0.628399 9.86783 1.39681 11.5582 2.69986 12.7857L2.69988 12.7858C4.00308 14.013 5.73649 14.6787 7.52604 14.6394C9.27813 14.6008 10.9465 13.8893 12.1869 12.6553L13.1088 13.5771L12.9838 13.7021L12.9745 13.7112C12.8106 13.8728 12.7182 14.0935 12.7182 14.3238C12.7182 14.554 12.8106 14.7745 12.9744 14.9361C12.9745 14.9362 12.9745 14.9362 12.9745 14.9362L17.1331 19.0715C17.1333 19.0717 17.1335 19.0718 17.1336 19.072C17.295 19.2363 17.5155 19.3289 17.7459 19.3289C17.9764 19.3289 18.1971 19.2361 18.3585 19.0715C18.3585 19.0715 18.3585 19.0715 18.3585 19.0715L19.1431 18.2763C19.1432 18.2762 19.1433 18.2761 19.1434 18.2761C19.3033 18.1149 19.3932 17.8971 19.3932 17.6699ZM17.5753 18.576C17.5493 18.514 17.5581 18.4428 17.5982 18.389L17.6066 18.3806L18.4599 17.5273L18.46 17.5272L18.3889 17.456L18.4613 17.5259C18.5141 17.4712 18.5948 17.4561 18.6631 17.4865L18.691 17.5144C18.7725 17.596 18.7725 17.7281 18.691 17.8097L17.8987 18.602C17.815 18.6805 17.6848 18.6805 17.6013 18.602L17.5753 18.576ZM7.3735 14.0096L7.37348 14.0095C5.74235 14.0074 4.17874 13.3574 3.02674 12.2026L2.94808 12.2811L3.02673 12.2026C1.87459 11.0478 1.22829 9.48287 1.22973 7.85145C1.23118 6.22018 1.88038 4.6563 3.03464 3.50369L3.03465 3.50369C4.18888 2.35101 5.7537 1.70393 7.38477 1.70471C9.01605 1.7055 10.5802 2.35391 11.7332 3.50762L11.7332 3.50763C12.8864 4.66132 13.5341 6.22568 13.5342 7.85693C13.5319 9.48956 12.8819 11.0544 11.7267 12.2082C10.5718 13.3616 9.00613 14.0095 7.3735 14.0096Z" fill="black" stroke="black" stroke-width="0.222222"/>
</svg>
